<svg width="40" height="40" viewBox="0 0 40 40" fill="none" xmlns="http://www.w3.org/2000/svg">
<g id="Group 37351">
<path id="Shape" d="M20 0C8.9543 0 0 8.9543 0 20C0 31.0457 8.9543 40 20 40C31.0457 40 40 31.0457 40 20C39.9871 8.95964 31.0404 0.0128579 20 0Z" fill="#29FF3E"/>
<path id="Path" d="M30.5639 14.7141L19.1555 30.1958C18.8835 30.5568 18.4778 30.7933 18.0296 30.8522C17.5814 30.9111 17.1284 30.7875 16.7722 30.5091L8.62555 23.9958C7.90666 23.4205 7.79025 22.3713 8.36555 21.6524C8.94085 20.9336 9.98999 20.8171 10.7089 21.3924L17.5022 26.8274L27.8806 12.7424C28.2209 12.2318 28.8143 11.9494 29.4252 12.0075C30.0362 12.0656 30.5658 12.4547 30.8037 13.0204C31.0417 13.5861 30.9496 14.2368 30.5639 14.7141Z" fill="black"/>
</g>
</svg>
